# xmcd CD database file
#
# Track frame offsets:
#	150
#	25052
#	63782
#	77688
#	101496
#	110796
#	138856
#	156182
#	193159
#	213581
#	250043
#	269495
#
# Disc length: 3938 seconds
#
# Revision: 0
# Processed by: cddbd v1.5.2PL0 Copyright (c) Steve Scherf et al.
# Submitted via: CDex 1.70beta3
#
DISCID=a40f600c
DTITLE=Joscho Stephan Trio - Live 2013
DYEAR=2014
DGENRE=Jazz
TTITLE0=Django's Tiger
TTITLE1=Minor Blues
TTITLE2=Joseph Joseph
TTITLE3=Ballade Pour Django
TTITLE4=Rondo Ala Turka Bielefeld
TTITLE5=Hot Club Swing
TTITLE6=Caravan
TTITLE7=C'est Si Bon
TTITLE8=Bossa Dorado
TTITLE9=Smile
TTITLE10=Sweet Georgia Brown
TTITLE11=Papillon
EXTD=YEAR: 2014
EXTT0=
EXTT1=
EXTT2=
EXTT3=
EXTT4=
EXTT5=
EXTT6=
EXTT7=
EXTT8=
EXTT9=
EXTT10=
EXTT11=
PLAYORDER=
